<svg viewBox="0 0 120 120" xmlns="http://www.w3.org/2000/svg">
  <defs>
    <!-- Gradients -->
    <linearGradient id="infinityGradient" x1="0%" y1="0%" x2="100%" y2="100%">
      <stop offset="0%" style="stop-color:#FFD93D"/>
      <stop offset="50%" style="stop-color:#FF6B6B"/>
      <stop offset="100%" style="stop-color:#4ECDC4"/>
    </linearGradient>
    
    <linearGradient id="clockGradient" x1="0%" y1="0%" x2="100%" y2="100%">
      <stop offset="0%" style="stop-color:#FFD93D"/>
      <stop offset="50%" style="stop-color:#FF6B6B"/>
      <stop offset="100%" style="stop-color:#4ECDC4"/>
    </linearGradient>
    
    <!-- Glow filter -->
    <filter id="glow" x="-20%" y="-20%" width="140%" height="140%">
      <feGaussianBlur stdDeviation="1.5" result="coloredBlur"/>
      <feMerge> 
        <feMergeNode in="coloredBlur"/>
        <feMergeNode in="SourceGraphic"/>
      </feMerge>
    </filter>
  </defs>
  
  <!-- Main Logo Group -->
  <g transform="translate(60, 60)">
    
    <!-- Outer Clock Circle -->
    <circle cx="0" cy="0" r="45" 
            fill="none" 
            stroke="url(#clockGradient)" 
            stroke-width="3" 
            opacity="0.8"/>
    
    <!-- Clock hour markers -->
    <g stroke="url(#clockGradient)" stroke-width="2" opacity="0.6">
      <line x1="0" y1="-42" x2="0" y2="-38" transform="rotate(0)"/>
      <line x1="0" y1="-42" x2="0" y2="-40" transform="rotate(30)"/>
      <line x1="0" y1="-42" x2="0" y2="-40" transform="rotate(60)"/>
      <line x1="0" y1="-42" x2="0" y2="-38" transform="rotate(90)"/>
      <line x1="0" y1="-42" x2="0" y2="-40" transform="rotate(120)"/>
      <line x1="0" y1="-42" x2="0" y2="-40" transform="rotate(150)"/>
      <line x1="0" y1="-42" x2="0" y2="-38" transform="rotate(180)"/>
      <line x1="0" y1="-42" x2="0" y2="-40" transform="rotate(210)"/>
      <line x1="0" y1="-42" x2="0" y2="-40" transform="rotate(240)"/>
      <line x1="0" y1="-42" x2="0" y2="-38" transform="rotate(270)"/>
      <line x1="0" y1="-42" x2="0" y2="-40" transform="rotate(300)"/>
      <line x1="0" y1="-42" x2="0" y2="-40" transform="rotate(330)"/>
    </g>
    
    <!-- Complete Infinity Loop (no break) -->
    <path d="M -30 0 
             C -30 -20, -10 -20, 0 0
             C 10 20, 30 20, 30 0
             C 30 -20, 10 -20, 0 0
             C -10 20, -30 20, -30 0 Z" 
          fill="none" 
          stroke="url(#infinityGradient)" 
          stroke-width="5" 
          stroke-linecap="round"
          opacity="0.9"
          filter="url(#glow)"/>
    
    <!-- Flowing component along infinity path -->
    <circle r="3" fill="url(#infinityGradient)" opacity="0.8" filter="url(#glow)">
      <animateMotion dur="4s" repeatCount="indefinite" rotate="auto">
        <path d="M -30 0 
                 C -30 -20, -10 -20, 0 0
                 C 10 20, 30 20, 30 0
                 C 30 -20, 10 -20, 0 0
                 C -10 20, -30 20, -30 0"/>
      </animateMotion>
      <animate attributeName="opacity" values="0.5;1;0.5" dur="2s" repeatCount="indefinite"/>
    </circle>
    
    <!-- Additional flowing sparkles -->
    <circle r="1.5" fill="#FFD93D">
      <animateMotion dur="6s" repeatCount="indefinite">
        <path d="M -30 0 
                 C -30 -20, -10 -20, 0 0
                 C 10 20, 30 20, 30 0
                 C 30 -20, 10 -20, 0 0
                 C -10 20, -30 20, -30 0"/>
      </animateMotion>
      <animate attributeName="opacity" values="0;1;0" dur="3s" repeatCount="indefinite"/>
    </circle>
    
    <circle r="1.2" fill="#4ECDC4">
      <animateMotion dur="5s" begin="2s" repeatCount="indefinite">
        <path d="M 30 0
                 C 30 -20, 10 -20, 0 0
                 C -10 20, -30 20, -30 0
                 C -30 -20, -10 -20, 0 0
                 C 10 20, 30 20, 30 0"/>
      </animateMotion>
      <animate attributeName="opacity" values="0;1;0" dur="2.5s" begin="2s" repeatCount="indefinite"/>
    </circle>
    
  </g>
</svg>